<?xml version="1.0" encoding="UTF-8"?>
<svg width="315px" height="100px" viewBox="0 0 315 100" version="1.1" xmlns="http://www.w3.org/2000/svg" xmlns:xlink="http://www.w3.org/1999/xlink">
    <!-- Generator: Sketch 46.1 (44463) - http://www.bohemiancoding.com/sketch -->
    <title>Visual/Logos/5/Full</title>
    <desc>Created with Sketch.</desc>
    <defs></defs>
    <g id="Logos" stroke="none" stroke-width="1" fill="none" fill-rule="evenodd">
        <g id="Visual/Logos/5/Full">
            <path d="M105,6 L113.271484,6 L113.271484,38.4682617 L132.875977,38.4682617 L132.875977,45.5849609 L105,45.5849609 L105,6 Z M145.404053,23.5097656 C144.428299,24.6197972 143.815105,26.1236884 143.564453,28.0214844 L155.461426,28.0214844 C155.3361,25.9983623 154.722906,24.46314 153.621826,23.4157715 C152.520746,22.368403 151.155607,21.8447266 149.526367,21.8447266 C147.753897,21.8447266 146.379806,22.399734 145.404053,23.5097656 Z M156.105957,16.9033203 C158.057464,17.8164108 159.668776,19.2576399 160.939941,21.2270508 C162.08578,22.9637131 162.828774,24.9778531 163.168945,27.2695312 C163.365886,28.6123114 163.446452,30.5458858 163.410645,33.0703125 L143.376465,33.0703125 C143.483887,36.0065251 144.405916,38.0654238 146.142578,39.2470703 C147.198899,39.9811235 148.470045,40.3481445 149.956055,40.3481445 C151.531583,40.3481445 152.811681,39.9005579 153.796387,39.0053711 C154.333499,38.5219702 154.807941,37.8505902 155.219727,36.9912109 L163.034668,36.9912109 C162.837727,38.7278733 161.933602,40.4913647 160.322266,42.2817383 C157.815743,45.1284322 154.306663,46.5517578 149.794922,46.5517578 C146.070945,46.5517578 142.785659,45.3522255 139.938965,42.953125 C137.092271,40.5540245 135.668945,36.6510687 135.668945,31.2441406 C135.668945,26.1773835 136.953519,22.2923312 139.522705,19.5888672 C142.091891,16.8854031 145.426412,15.5336914 149.526367,15.5336914 C151.961275,15.5336914 154.15445,15.9902298 156.105957,16.9033203 Z M165.559082,22.0327148 L165.559082,16.5810547 L169.641113,16.5810547 L169.641113,8.41699219 L177.214355,8.41699219 L177.214355,16.5810547 L181.967773,16.5810547 L181.967773,22.0327148 L177.214355,22.0327148 L177.214355,37.5014648 C177.214355,38.7010151 177.366535,39.4484849 177.670898,39.7438965 C177.975262,40.0393081 178.906242,40.1870117 180.463867,40.1870117 C180.696616,40.1870117 180.942788,40.1825359 181.202393,40.173584 C181.461997,40.1646321 181.717121,40.1512045 181.967773,40.1333008 L181.967773,45.8535156 L178.342285,45.987793 C174.725731,46.1131191 172.255052,45.4864978 170.930176,44.1079102 C170.070796,43.2306271 169.641113,41.8789154 169.641113,40.0527344 L169.641113,22.0327148 L165.559082,22.0327148 Z M186.989746,18.4072266 C188.744312,17.8522108 189.952796,16.9122788 190.615234,15.5874023 C190.973309,14.799638 191.125489,14.0029337 191.071777,13.1972656 L186.855469,13.1972656 L186.855469,6.13427734 L194.509277,6.13427734 L194.509277,11.8007812 C194.509277,14.5042453 193.851325,16.6347578 192.5354,18.1923828 C191.219476,19.7500078 189.370943,20.7615537 186.989746,21.2270508 L186.989746,18.4072266 Z M206.11084,36.2392578 C206.271973,37.5999417 206.621091,38.5667289 207.158203,39.1396484 C208.107101,40.1601614 209.861641,40.6704102 212.421875,40.6704102 C213.925789,40.6704102 215.120845,40.4466168 216.00708,39.9990234 C216.893315,39.5514301 217.336426,38.88005 217.336426,37.9848633 C217.336426,37.125484 216.978356,36.4720074 216.262207,36.0244141 C215.546058,35.5768207 212.887393,34.8069716 208.286133,33.7148438 C204.973942,32.8912719 202.637539,31.8618226 201.276855,30.6264648 C199.916172,29.4090108 199.23584,27.6544711 199.23584,25.362793 C199.23584,22.6593289 200.29662,20.3363541 202.418213,18.3937988 C204.539806,16.4512435 207.525209,15.4799805 211.374512,15.4799805 C215.026874,15.4799805 218.003325,16.2095467 220.303955,17.6687012 C222.604585,19.1278556 223.924966,21.6477686 224.265137,25.2285156 L216.611328,25.2285156 C216.503906,24.2438102 216.226402,23.4650094 215.778809,22.8920898 C214.937333,21.8536732 213.505056,21.3344727 211.481934,21.3344727 C209.816886,21.3344727 208.630782,21.5940729 207.923584,22.1132812 C207.216386,22.6324896 206.862793,23.2412074 206.862793,23.9394531 C206.862793,24.8167362 207.238766,25.4523092 207.990723,25.8461914 C208.74268,26.2579773 211.401344,26.9651643 215.966797,27.9677734 C219.010432,28.6839229 221.293124,29.7670826 222.814941,31.2172852 C224.318855,32.6853915 225.070801,34.5204968 225.070801,36.7226562 C225.070801,39.6230614 223.992117,41.9907949 221.834717,43.8259277 C219.677317,45.6610606 216.342796,46.5786133 211.831055,46.5786133 C207.229795,46.5786133 203.832612,45.6073502 201.639404,43.6647949 C199.446197,41.7222396 198.349609,39.2470854 198.349609,36.2392578 L206.11084,36.2392578 Z M125.665283,61.190918 C124.582107,60.3136349 123.064788,59.875 121.113281,59.875 L113.405762,59.875 L113.405762,71.5302734 L121.113281,71.5302734 C123.064788,71.5302734 124.582107,71.0558316 125.665283,70.1069336 C126.748459,69.1580356 127.290039,67.6541444 127.290039,65.5952148 C127.290039,63.5362853 126.748459,62.068201 125.665283,61.190918 Z M131.936035,75.4511719 C129.572742,77.3847753 126.197939,78.3515625 121.811523,78.3515625 L113.405762,78.3515625 L113.405762,92.5849609 L105.187988,92.5849609 L105.187988,53 L122.429199,53 C126.403828,53 129.572742,54.0204976 131.936035,56.0615234 C134.299328,58.1025493 135.480957,61.2625112 135.480957,65.5415039 C135.480957,70.2143788 134.299328,73.5175685 131.936035,75.4511719 Z M157.327881,62.6276855 C157.426351,62.6366374 157.645669,62.650065 157.98584,62.6679688 L157.98584,70.5097656 C157.502439,70.4560544 157.072756,70.4202475 156.696777,70.4023438 C156.320799,70.38444 156.01644,70.3754883 155.783691,70.3754883 C152.704249,70.3754883 150.636399,71.3780824 149.580078,73.3833008 C148.989255,74.5112361 148.693848,76.2478724 148.693848,78.5932617 L148.693848,92.5849609 L140.986328,92.5849609 L140.986328,63.3125 L148.291016,63.3125 L148.291016,68.4150391 C149.472662,66.4635319 150.502111,65.1297236 151.379395,64.4135742 C152.811693,63.214024 154.673654,62.6142578 156.965332,62.6142578 C157.108562,62.6142578 157.22941,62.6187337 157.327881,62.6276855 Z M169.89624,70.5097656 C168.920487,71.6197972 168.307293,73.1236884 168.056641,75.0214844 L179.953613,75.0214844 C179.828287,72.9983623 179.215093,71.46314 178.114014,70.4157715 C177.012934,69.368403 175.647795,68.8447266 174.018555,68.8447266 C172.246085,68.8447266 170.871994,69.399734 169.89624,70.5097656 Z M180.598145,63.9033203 C182.549652,64.8164108 184.160964,66.2576399 185.432129,68.2270508 C186.577968,69.9637131 187.320962,71.9778531 187.661133,74.2695312 C187.858074,75.6123114 187.93864,77.5458858 187.902832,80.0703125 L167.868652,80.0703125 C167.976075,83.0065251 168.898103,85.0654238 170.634766,86.2470703 C171.691086,86.9811235 172.962232,87.3481445 174.448242,87.3481445 C176.023771,87.3481445 177.303869,86.9005579 178.288574,86.0053711 C178.825686,85.5219702 179.300128,84.8505902 179.711914,83.9912109 L187.526855,83.9912109 C187.329914,85.7278733 186.425789,87.4913647 184.814453,89.2817383 C182.30793,92.1284322 178.798851,93.5517578 174.287109,93.5517578 C170.563132,93.5517578 167.277846,92.3522255 164.431152,89.953125 C161.584458,87.5540245 160.161133,83.6510687 160.161133,78.2441406 C160.161133,73.1773835 161.445707,69.2923312 164.014893,66.5888672 C166.584079,63.8854031 169.918599,62.5336914 174.018555,62.5336914 C176.453463,62.5336914 178.646637,62.9902298 180.598145,63.9033203 Z M211.105957,63.3125 L219.32373,63.3125 L208.769531,92.5849609 L200.686035,92.5849609 L190.185547,63.3125 L198.779297,63.3125 L204.875488,84.9042969 L211.105957,63.3125 Z M231.516113,59.8212891 L223.754883,59.8212891 L223.754883,52.7583008 L231.516113,52.7583008 L231.516113,59.8212891 Z M223.754883,63.3125 L231.516113,63.3125 L231.516113,92.5849609 L223.754883,92.5849609 L223.754883,63.3125 Z M246.35376,70.5097656 C245.378006,71.6197972 244.764812,73.1236884 244.51416,75.0214844 L256.411133,75.0214844 C256.285807,72.9983623 255.672613,71.46314 254.571533,70.4157715 C253.470453,69.368403 252.105314,68.8447266 250.476074,68.8447266 C248.703604,68.8447266 247.329513,69.399734 246.35376,70.5097656 Z M257.055664,63.9033203 C259.007171,64.8164108 260.618483,66.2576399 261.889648,68.2270508 C263.035487,69.9637131 263.778481,71.9778531 264.118652,74.2695312 C264.315593,75.6123114 264.396159,77.5458858 264.360352,80.0703125 L244.326172,80.0703125 C244.433594,83.0065251 245.355623,85.0654238 247.092285,86.2470703 C248.148606,86.9811235 249.419752,87.3481445 250.905762,87.3481445 C252.48129,87.3481445 253.761388,86.9005579 254.746094,86.0053711 C255.283206,85.5219702 255.757648,84.8505902 256.169434,83.9912109 L263.984375,83.9912109 C263.787434,85.7278733 262.883309,87.4913647 261.271973,89.2817383 C258.76545,92.1284322 255.25637,93.5517578 250.744629,93.5517578 C247.020652,93.5517578 243.735366,92.3522255 240.888672,89.953125 C238.041978,87.5540245 236.618652,83.6510687 236.618652,78.2441406 C236.618652,73.1773835 237.903226,69.2923312 240.472412,66.5888672 C243.041598,63.8854031 246.376119,62.5336914 250.476074,62.5336914 C252.910982,62.5336914 255.104157,62.9902298 257.055664,63.9033203 Z M283.320312,63.3125 L291.081543,63.3125 L295.539551,84.394043 L300.10498,63.3125 L308.081055,63.3125 L299.594727,92.5849609 L291.726074,92.5849609 L287.133789,71.2617188 L282.487793,92.5849609 L274.538574,92.5849609 L266.320801,63.3125 L274.538574,63.3125 L279.104004,84.3134766 L283.320312,63.3125 Z" id="Let’s-Preview" fill="#8FE0E9"></path>
            <g id="Visual/Logos/5/Color">
                <path d="M65,95.2790698 L93,79 L93,29 L50,4 L7,29 L7,79 L35,95.2790698 L35,83.1337209 L18,73.25 L18,35.75 L50.25,17 L82.5,35.75 L82.5,73.25 L65,83.4244186 L65,95.2790698 Z" id="Combined-Shape" fill="#4EBAC5" fill-rule="evenodd"></path>
                <path d="M35,80.8146692 L35,71.997543 L27.5771131,67.681911 L27.5771131,41.318089 L50.25,28.136178 L72.9228869,41.318089 L72.9228869,67.681911 L65,72.2882406 L65,81.1059915 L80.5,72.0749998 L80.5,36.8249998 L50.25,19.1999998 L20,36.8249998 L20,72.0749998 L35,80.8146692 Z" id="Combined-Shape" fill="#8FE0E9" fill-rule="evenodd"></path>
                <path d="M47.5,90 L47.5,91.5811388 C47.5,92.9618507 48.6192881,94.0811388 50,94.0811388 C51.3807119,94.0811388 52.5,92.9618507 52.5,91.5811388 L52.5,90 C52.5,88.6192881 51.3807119,87.5 50,87.5 C48.6192881,87.5 47.5,88.6192881 47.5,90 Z" id="Line-Copy-5" fill="#CDFAFF" fill-rule="nonzero"></path>
                <path d="M52.5,82.5177714 L52.5,75.4751308 C52.5,74.0944189 51.3807119,72.9751308 50,72.9751308 C48.6192881,72.9751308 47.5,74.0944189 47.5,75.4751308 L47.5,82.5177714 C47.5,83.8984833 48.6192881,85.0177714 50,85.0177714 C51.3807119,85.0177714 52.5,83.8984833 52.5,82.5177714 Z" id="Line-Copy-4" fill="#ACEEF5" fill-rule="nonzero"></path>
                <path d="M52.5,68.5067555 L52.5,50 C52.5,48.6192881 51.3807119,47.5 50,47.5 C48.6192881,47.5 47.5,48.6192881 47.5,50 L47.5,68.5067555 C47.5,69.8874674 48.6192881,71.0067555 50,71.0067555 C51.3807119,71.0067555 52.5,69.8874674 52.5,68.5067555 Z" id="Line-Copy-3" fill="#8FE0E9" fill-rule="nonzero"></path>
                <path d="M59,85 L59,83 C59,81.8954305 58.1045695,81 57,81 C55.8954305,81 55,81.8954305 55,83 L55,85 C55,86.1045695 55.8954305,87 57,87 C58.1045695,87 59,86.1045695 59,85 Z" id="Line-Copy-8" fill="#CDFAFF" fill-rule="nonzero"></path>
                <path d="M59,77 L59,72 C59,70.8954305 58.1045695,70 57,70 C55.8954305,70 55,70.8954305 55,72 L55,77 C55,78.1045695 55.8954305,79 57,79 C58.1045695,79 59,78.1045695 59,77 Z" id="Line-Copy-7" fill="#ACEEF5" fill-rule="nonzero"></path>
                <path d="M59,66 L59,55 C59,53.8954305 58.1045695,53 57,53 C55.8954305,53 55,53.8954305 55,55 L55,66 C55,67.1045695 55.8954305,68 57,68 C58.1045695,68 59,67.1045695 59,66 Z" id="Line-Copy-6" fill="#8FE0E9" fill-rule="nonzero"></path>
                <path d="M45,85 L45,83 C45,81.8954305 44.1045695,81 43,81 C41.8954305,81 41,81.8954305 41,83 L41,85 C41,86.1045695 41.8954305,87 43,87 C44.1045695,87 45,86.1045695 45,85 Z" id="Line-Copy-11" fill="#CDFAFF" fill-rule="nonzero"></path>
                <path d="M45,77 L45,72 C45,70.8954305 44.1045695,70 43,70 C41.8954305,70 41,70.8954305 41,72 L41,77 C41,78.1045695 41.8954305,79 43,79 C44.1045695,79 45,78.1045695 45,77 Z" id="Line-Copy-10" fill="#ACEEF5" fill-rule="nonzero"></path>
                <path d="M45,66 L45,55 C45,53.8954305 44.1045695,53 43,53 C41.8954305,53 41,53.8954305 41,55 L41,66 C41,67.1045695 41.8954305,68 43,68 C44.1045695,68 45,67.1045695 45,66 Z" id="Line-Copy-9" fill="#8FE0E9" fill-rule="nonzero"></path>
            </g>
        </g>
    </g>
</svg>